# xmcd
#
# Track frame offsets: 
#        150
#        21783
#        44697
#        68500
#        96002
#        124524
#
# Disc length: 2001 seconds
#
# Revision: 1
# Processed by: cddbd v1.5.2PL0 Copyright (c) Steve Scherf et al.
# Submitted via: ExactAudioCopyFreeDBPlugin 1.0
#
DISCID=4507cf06
DTITLE=The Blue Nile - Hats  [2012 remaster]  CD2
DYEAR=2012
DGENRE=Alt. Rock
TTITLE0=Seven A.M. - live in the studio
TTITLE1=Christmas
TTITLE2=Let's Go Out Tonight - vocal 2
TTITLE3=Saturday Night - vocal 2, early mix
TTITLE4=Headlights on the Parade - live in Tennessee
TTITLE5=The Wires Are Down
EXTD=
EXTT0=
EXTT1=
EXTT2=
EXTT3=
EXTT4=
EXTT5=
PLAYORDER=
